<?xml version="1.0" encoding="utf-8"?>
<!-- Arrow Left Circle icon by Arthur Shlain from Usefulicons.com -->
<svg xmlns="http://www.w3.org/2000/svg" xmlns:xlink="http://www.w3.org/1999/xlink" xml:space="preserve" version="1.1" x="0px" y="0px" viewBox="0 0 100 100" width="20px" height="2px"><path d="M50,5C25.147,5,5,25.147,5,50S25.147,95,50,95S95,74.853,95,50S74.853,5,50,5ZM50,87.5C29.322,87.5,12.5,70.678,12.5,50S29.322,12.5,50,12.5S87.5,29.322,87.5,50S70.678,87.5,50,87.5Z" stroke="none"></path><path d="M51.768,31.768L48.232,28.232L26.465,50L48.232,71.768L51.768,68.232L36.035,52.5L70,52.5L70,47.5L36.035,47.5Z" stroke="none"></path></svg>