<svg width="135" height="40" viewBox="0 0 135 40" fill="none" xmlns="http://www.w3.org/2000/svg">
<rect x="0.5" y="0.5" width="134" height="39" rx="19.5" fill="white" stroke="#666666"/>
<path d="M33.6584 18.9477C33.6322 16.1094 36.042 14.7285 36.1522 14.6643C34.7874 12.7242 32.6721 12.4591 31.9287 12.438C30.1521 12.2557 28.4287 13.4745 27.5237 13.4745C26.6006 13.4745 25.2069 12.4556 23.7049 12.4855C21.772 12.5146 19.9637 13.6057 18.972 15.3001C16.9252 18.7549 18.4517 23.8318 20.4126 26.6243C21.3935 27.9919 22.5397 29.519 24.04 29.4653C25.5077 29.4063 26.056 28.5529 27.8272 28.5529C29.5822 28.5529 30.097 29.4653 31.6271 29.4309C33.2023 29.4063 34.194 28.0571 35.1406 26.6771C36.2742 25.1096 36.7294 23.5658 36.7474 23.4866C36.7104 23.4742 33.6882 22.3496 33.6584 18.9477Z" fill="black"/>
<path d="M30.7681 10.601C31.5575 9.63841 32.0976 8.32889 31.9477 7C30.8051 7.04932 29.3762 7.77056 28.5534 8.71197C27.8254 9.54154 27.1751 10.9013 27.3431 12.18C28.6265 12.2733 29.9443 11.5485 30.7681 10.601Z" fill="black"/>
<path d="M54.8997 29.2685H52.8485L51.7249 25.826H47.8193L46.749 29.2685H44.752L48.6214 17.5488H51.0113L54.8997 29.2685ZM51.3861 24.3818L50.37 21.3215C50.2625 21.0089 50.0611 20.2727 49.764 19.1137H49.7278C49.6095 19.6122 49.4189 20.3484 49.157 21.3215L48.1589 24.3818H51.3861Z" fill="black"/>
<path d="M64.8506 24.9394C64.8506 26.3766 64.4523 27.5127 63.6556 28.3467C62.9421 29.089 62.056 29.4598 60.9984 29.4598C59.8567 29.4598 59.0366 29.06 58.5371 28.2604H58.5009V32.712H56.5753V23.6C56.5753 22.6964 56.5509 21.7691 56.5039 20.818H58.1975L58.3049 22.1575H58.3411C58.9833 21.1483 59.9578 20.6445 61.2657 20.6445C62.2882 20.6445 63.1417 21.0382 63.8246 21.8264C64.5092 22.6154 64.8506 23.6528 64.8506 24.9394ZM62.8888 25.0081C62.8888 24.1856 62.6991 23.5075 62.318 22.9738C61.9016 22.4173 61.3425 22.139 60.6416 22.139C60.1665 22.139 59.7347 22.294 59.3491 22.5996C58.9625 22.9078 58.7096 23.3102 58.5913 23.8087C58.5316 24.0412 58.5018 24.2314 58.5018 24.3811V25.7901C58.5018 26.4048 58.6951 26.9235 59.0817 27.3471C59.4683 27.7707 59.9705 27.9821 60.5883 27.9821C61.3136 27.9821 61.8781 27.7091 62.2818 27.1648C62.6865 26.6197 62.8888 25.9011 62.8888 25.0081Z" fill="black"/>
<path d="M74.8185 24.9394C74.8185 26.3766 74.4201 27.5127 73.6226 28.3467C72.9099 29.089 72.0239 29.4598 70.9662 29.4598C69.8245 29.4598 69.0044 29.06 68.5058 28.2604H68.4697V32.712H66.544V23.6C66.544 22.6964 66.5196 21.7691 66.4727 20.818H68.1662L68.2737 22.1575H68.3098C68.9511 21.1483 69.9257 20.6445 71.2345 20.6445C72.256 20.6445 73.1096 21.0382 73.7942 21.8264C74.4761 22.6154 74.8185 23.6528 74.8185 24.9394ZM72.8567 25.0081C72.8567 24.1856 72.6661 23.5075 72.2849 22.9738C71.8685 22.4173 71.3112 22.139 70.6094 22.139C70.1334 22.139 69.7026 22.294 69.316 22.5996C68.9294 22.9078 68.6774 23.3102 68.5591 23.8087C68.5004 24.0412 68.4697 24.2314 68.4697 24.3811V25.7901C68.4697 26.4048 68.663 26.9235 69.0478 27.3471C69.4343 27.7698 69.9365 27.9821 70.5561 27.9821C71.2814 27.9821 71.846 27.7091 72.2497 27.1648C72.6543 26.6197 72.8567 25.9011 72.8567 25.0081Z" fill="black"/>
<path d="M85.9648 25.9817C85.9648 26.9786 85.6099 27.7897 84.8972 28.4158C84.1141 29.1001 83.0239 29.4418 81.623 29.4418C80.3296 29.4418 79.2927 29.1987 78.5078 28.7117L78.954 27.1468C79.7994 27.6453 80.727 27.8954 81.7378 27.8954C82.463 27.8954 83.0276 27.7351 83.4331 27.4163C83.8368 27.0975 84.0383 26.6695 84.0383 26.1359C84.0383 25.6603 83.8721 25.2596 83.5388 24.9347C83.2073 24.6097 82.6536 24.3076 81.8805 24.0285C79.7759 23.2632 78.7246 22.1421 78.7246 20.6679C78.7246 19.7045 79.0931 18.9146 79.831 18.2999C80.5663 17.6843 81.5472 17.377 82.7737 17.377C83.8676 17.377 84.7762 17.5628 85.5015 17.9335L85.0201 19.4641C84.3426 19.1048 83.5767 18.9251 82.7196 18.9251C82.0421 18.9251 81.5128 19.088 81.1335 19.4121C80.8128 19.7019 80.6521 20.055 80.6521 20.4733C80.6521 20.9365 80.8354 21.3196 81.2039 21.6208C81.5246 21.8991 82.1072 22.2002 82.9526 22.5252C83.9868 22.9312 84.7464 23.4059 85.235 23.9501C85.7219 24.4926 85.9648 25.1715 85.9648 25.9817Z" fill="black"/>
<path d="M92.3312 22.2275H90.2086V26.3305C90.2086 27.374 90.5825 27.8954 91.3322 27.8954C91.6763 27.8954 91.9618 27.8663 92.1876 27.8082L92.2409 29.234C91.8615 29.3722 91.362 29.4418 90.7433 29.4418C89.9828 29.4418 89.3885 29.2155 88.9594 28.7637C88.5322 28.311 88.3172 27.5519 88.3172 26.4855V22.2258H87.0527V20.8168H88.3172V19.2695L90.2086 18.7129V20.8168H92.3312V22.2275Z" fill="black"/>
<path d="M101.909 24.9729C101.909 26.2719 101.528 27.3383 100.768 28.1723C99.9701 29.0309 98.9115 29.4589 97.5919 29.4589C96.3202 29.4589 95.3077 29.0476 94.5526 28.2251C93.7975 27.4026 93.4199 26.3643 93.4199 25.1129C93.4199 23.8034 93.8083 22.7308 94.5878 21.8968C95.3655 21.062 96.415 20.6445 97.7346 20.6445C99.0064 20.6445 100.03 21.0558 100.802 21.8792C101.541 22.6779 101.909 23.7092 101.909 24.9729ZM99.9114 25.0337C99.9114 24.2543 99.7407 23.5859 99.3948 23.0284C98.991 22.3539 98.4139 22.0175 97.666 22.0175C96.8919 22.0175 96.3039 22.3547 95.9002 23.0284C95.5542 23.5868 95.3835 24.2657 95.3835 25.0689C95.3835 25.8483 95.5542 26.5167 95.9002 27.0732C96.3166 27.7478 96.8982 28.0842 97.6488 28.0842C98.384 28.0842 98.9612 27.7408 99.3776 27.0556C99.7326 26.4876 99.9114 25.8122 99.9114 25.0337Z" fill="black"/>
<path d="M108.168 22.4692C107.978 22.4349 107.775 22.4173 107.561 22.4173C106.884 22.4173 106.36 22.6665 105.992 23.1658C105.671 23.6061 105.51 24.1627 105.51 24.8346V29.2687H103.585L103.604 23.4793C103.604 22.5053 103.579 21.6185 103.531 20.8189H105.209L105.279 22.4358H105.332C105.536 21.8801 105.856 21.4327 106.295 21.0972C106.724 20.7951 107.188 20.6445 107.687 20.6445C107.865 20.6445 108.026 20.6569 108.168 20.6789V22.4692Z" fill="black"/>
<path d="M116.781 24.6438C116.781 24.9802 116.758 25.2637 116.71 25.4954H110.933C110.956 26.3302 111.235 26.9687 111.772 27.409C112.258 27.8026 112.888 27.9999 113.661 27.9999C114.516 27.9999 115.297 27.8669 115.999 27.6001L116.3 28.9034C115.48 29.2522 114.512 29.4257 113.395 29.4257C112.051 29.4257 110.996 29.0399 110.228 28.2694C109.462 27.4988 109.078 26.4641 109.078 25.166C109.078 23.8917 109.435 22.8305 110.149 21.9842C110.897 21.0807 111.908 20.6289 113.18 20.6289C114.429 20.6289 115.375 21.0807 116.017 21.9842C116.525 22.7019 116.781 23.5896 116.781 24.6438ZM114.945 24.1568C114.957 23.6002 114.832 23.1194 114.571 22.7134C114.237 22.1912 113.725 21.9305 113.036 21.9305C112.407 21.9305 111.894 22.185 111.503 22.6958C111.183 23.1018 110.992 23.5888 110.933 24.1559H114.945V24.1568Z" fill="black"/>
<path d="M50.7485 10.3402C50.7485 11.3767 50.4296 12.1569 49.7929 12.6809C49.2031 13.1644 48.3649 13.4066 47.2792 13.4066C46.7409 13.4066 46.2802 13.3837 45.8945 13.3379V7.67445C46.3976 7.5952 46.9396 7.55469 47.5249 7.55469C48.559 7.55469 49.3385 7.77397 49.8642 8.21253C50.4531 8.70833 50.7485 9.41725 50.7485 10.3402ZM49.7504 10.3657C49.7504 9.69377 49.568 9.1786 49.2031 8.81929C48.8381 8.46087 48.3052 8.28122 47.6034 8.28122C47.3054 8.28122 47.0516 8.30059 46.8411 8.3411V12.6466C46.9576 12.6642 47.1708 12.6721 47.4806 12.6721C48.205 12.6721 48.7641 12.4757 49.1579 12.083C49.5517 11.6902 49.7504 11.1178 49.7504 10.3657Z" fill="black"/>
<path d="M56.0413 11.245C56.0413 11.8835 55.8543 12.4066 55.4804 12.817C55.0884 13.2388 54.569 13.4493 53.9205 13.4493C53.2955 13.4493 52.7978 13.2476 52.4266 12.8425C52.0563 12.4383 51.8711 11.9284 51.8711 11.3137C51.8711 10.6708 52.0617 10.1433 52.4446 9.73383C52.8276 9.32433 53.3424 9.11914 53.991 9.11914C54.616 9.11914 55.1182 9.32081 55.4985 9.72502C55.8597 10.1178 56.0413 10.625 56.0413 11.245ZM55.0595 11.275C55.0595 10.8919 54.9746 10.5634 54.8057 10.2895C54.607 9.95839 54.3243 9.79283 53.9566 9.79283C53.5764 9.79283 53.2874 9.95839 53.0886 10.2895C52.9188 10.5634 52.8348 10.8972 52.8348 11.2917C52.8348 11.6748 52.9197 12.0033 53.0886 12.2771C53.2937 12.6083 53.5791 12.7738 53.9476 12.7738C54.3089 12.7738 54.5925 12.6056 54.7966 12.2683C54.9719 11.9892 55.0595 11.658 55.0595 11.275Z" fill="black"/>
<path d="M63.1358 9.20312L61.8036 13.3545H60.9365L60.3846 11.5518C60.2446 11.1018 60.1308 10.6544 60.0423 10.2106H60.0251C59.9429 10.6668 59.8291 11.1132 59.6828 11.5518L59.0966 13.3545H58.2196L56.9668 9.20312H57.9396L58.421 11.1767C58.5375 11.6434 58.6332 12.0881 58.71 12.5091H58.7272C58.7976 12.1621 58.9141 11.72 59.0785 11.1855L59.6828 9.20401H60.4541L61.0331 11.1432C61.1731 11.6161 61.2869 12.0714 61.3745 12.5099H61.4007C61.4649 12.0828 61.5615 11.6275 61.6898 11.1432L62.2064 9.20401H63.1358V9.20312Z" fill="black"/>
<path d="M68.0427 13.3557H67.0961V10.978C67.0961 10.2453 66.8107 9.87895 66.238 9.87895C65.9571 9.87895 65.7304 9.97934 65.5543 10.181C65.38 10.3827 65.2914 10.6204 65.2914 10.8926V13.3549H64.3449V10.3906C64.3449 10.026 64.3331 9.6306 64.3105 9.20261H65.1424L65.1867 9.85165H65.2129C65.3231 9.64998 65.4874 9.48354 65.7033 9.35056C65.9598 9.19557 66.2471 9.11719 66.5614 9.11719C66.9588 9.11719 67.2894 9.24224 67.5522 9.49322C67.8792 9.80057 68.0427 10.2594 68.0427 10.8688V13.3557Z" fill="black"/>
<path d="M70.6547 13.355H69.709V7.29883H70.6547V13.355Z" fill="black"/>
<path d="M76.2268 11.245C76.2268 11.8835 76.0399 12.4066 75.6659 12.817C75.2739 13.2388 74.7537 13.4493 74.1061 13.4493C73.4801 13.4493 72.9824 13.2476 72.6121 12.8425C72.2418 12.4383 72.0566 11.9284 72.0566 11.3137C72.0566 10.6708 72.2472 10.1433 72.6302 9.73383C73.0132 9.32433 73.528 9.11914 74.1756 9.11914C74.8015 9.11914 75.3028 9.32081 75.684 9.72502C76.0453 10.1178 76.2268 10.625 76.2268 11.245ZM75.2441 11.275C75.2441 10.8919 75.1592 10.5634 74.9903 10.2895C74.7925 9.95839 74.5089 9.79283 74.1422 9.79283C73.761 9.79283 73.472 9.95839 73.2742 10.2895C73.1044 10.5634 73.0204 10.8972 73.0204 11.2917C73.0204 11.6748 73.1053 12.0033 73.2742 12.2771C73.4792 12.6083 73.7646 12.7738 74.1332 12.7738C74.4945 12.7738 74.7772 12.6056 74.9813 12.2683C75.1574 11.9892 75.2441 11.658 75.2441 11.275Z" fill="black"/>
<path d="M80.808 13.355H79.958L79.8876 12.8769H79.8614C79.5706 13.2582 79.156 13.4493 78.6177 13.4493C78.2157 13.4493 77.8906 13.3233 77.6458 13.0732C77.4236 12.846 77.3125 12.5633 77.3125 12.2278C77.3125 11.7206 77.5293 11.334 77.9655 11.0662C78.4009 10.7985 79.0133 10.6673 79.8018 10.6735V10.596C79.8018 10.0491 79.5073 9.7761 78.9175 9.7761C78.4975 9.7761 78.1272 9.87914 77.8075 10.0834L77.6151 9.47756C78.0107 9.23891 78.4993 9.11914 79.0756 9.11914C80.1884 9.11914 80.7466 9.69156 80.7466 10.8364V12.3652C80.7466 12.78 80.7673 13.1102 80.808 13.355ZM79.8253 11.9284V11.2882C78.7811 11.2706 78.2591 11.5497 78.2591 12.1248C78.2591 12.3414 78.3187 12.5035 78.4406 12.6118C78.5626 12.7201 78.7179 12.7738 78.9031 12.7738C79.1108 12.7738 79.305 12.7095 79.482 12.5818C79.66 12.4533 79.7693 12.2903 79.8099 12.0904C79.8199 12.0455 79.8253 11.9909 79.8253 11.9284Z" fill="black"/>
<path d="M86.1856 13.355H85.3456L85.3013 12.6884H85.2752C85.0069 13.1956 84.5499 13.4493 83.9077 13.4493C83.3946 13.4493 82.9674 13.2529 82.6287 12.8601C82.29 12.4673 82.1211 11.9574 82.1211 11.3313C82.1211 10.6594 82.3044 10.1151 82.673 9.69947C83.0297 9.31198 83.4669 9.11824 83.9872 9.11824C84.5589 9.11824 84.959 9.30582 85.1866 9.68185H85.2047V7.29883H86.1522V12.2366C86.1522 12.6408 86.163 13.0133 86.1856 13.355ZM85.2047 11.6043V10.9121C85.2047 10.7923 85.1957 10.6955 85.1785 10.6215C85.1252 10.3996 85.0105 10.2129 84.8362 10.0623C84.6601 9.9117 84.4478 9.83597 84.203 9.83597C83.8499 9.83597 83.5735 9.97247 83.3702 10.2463C83.1688 10.5202 83.0668 10.8698 83.0668 11.297C83.0668 11.7073 83.1634 12.0402 83.3576 12.2965C83.5626 12.5695 83.839 12.706 84.185 12.706C84.4957 12.706 84.7441 12.5924 84.9328 12.3643C85.1153 12.1538 85.2047 11.9002 85.2047 11.6043Z" fill="black"/>
<path d="M94.2815 11.245C94.2815 11.8835 94.0946 12.4066 93.7206 12.817C93.3286 13.2388 92.8102 13.4493 92.1607 13.4493C91.5366 13.4493 91.0389 13.2476 90.6668 12.8425C90.2965 12.4383 90.1113 11.9284 90.1113 11.3137C90.1113 10.6708 90.3019 10.1433 90.6849 9.73383C91.0678 9.32433 91.5827 9.11914 92.2321 9.11914C92.8562 9.11914 93.3593 9.32081 93.7387 9.72502C94.1 10.1178 94.2815 10.625 94.2815 11.245ZM93.3006 11.275C93.3006 10.8919 93.2157 10.5634 93.0468 10.2895C92.8472 9.95839 92.5654 9.79283 92.1969 9.79283C91.8175 9.79283 91.5285 9.95839 91.3289 10.2895C91.1591 10.5634 91.0751 10.8972 91.0751 11.2917C91.0751 11.6748 91.16 12.0033 91.3289 12.2771C91.5339 12.6083 91.8193 12.7738 92.1878 12.7738C92.5491 12.7738 92.8337 12.6056 93.0378 12.2683C93.2121 11.9892 93.3006 11.658 93.3006 11.275Z" fill="black"/>
<path d="M99.3718 13.3557H98.4262V10.978C98.4262 10.2453 98.1408 9.87895 97.5672 9.87895C97.2863 9.87895 97.0596 9.97934 96.8844 10.181C96.7091 10.3827 96.6215 10.6204 96.6215 10.8926V13.3549H95.674V10.3906C95.674 10.026 95.6632 9.6306 95.6406 9.20261H96.4716L96.5159 9.85165H96.542C96.6531 9.64998 96.8175 9.48354 97.0325 9.35056C97.2899 9.19557 97.5762 9.11719 97.8915 9.11719C98.288 9.11719 98.6186 9.24224 98.8814 9.49322C99.2093 9.80057 99.3718 10.2594 99.3718 10.8688V13.3557Z" fill="black"/>
<path d="M105.742 9.89511H104.699V11.9118C104.699 12.4243 104.884 12.6806 105.251 12.6806C105.421 12.6806 105.562 12.6665 105.673 12.6374L105.697 13.3375C105.51 13.4062 105.265 13.4406 104.962 13.4406C104.588 13.4406 104.297 13.3296 104.087 13.1077C103.876 12.8858 103.771 12.5124 103.771 11.9884V9.89511H103.148V9.2038H103.771V8.44292L104.698 8.16992V9.20292H105.741V9.89511H105.742Z" fill="black"/>
<path d="M110.753 13.355H109.805V10.9949C109.805 10.2508 109.52 9.87824 108.948 9.87824C108.509 9.87824 108.209 10.094 108.045 10.5255C108.017 10.6162 108 10.7272 108 10.8575V13.3541H107.055V7.29883H108V9.80074H108.018C108.317 9.34545 108.744 9.11824 109.297 9.11824C109.689 9.11824 110.014 9.24329 110.271 9.49428C110.592 9.80691 110.753 10.2719 110.753 10.8866V13.355Z" fill="black"/>
<path d="M115.922 11.0831C115.922 11.2487 115.909 11.3878 115.887 11.5014H113.048C113.061 11.9118 113.196 12.2244 113.459 12.441C113.699 12.6348 114.009 12.7317 114.388 12.7317C114.808 12.7317 115.191 12.6665 115.536 12.5353L115.685 13.1764C115.281 13.3472 114.806 13.4327 114.256 13.4327C113.596 13.4327 113.077 13.2433 112.701 12.8646C112.324 12.486 112.137 11.9778 112.137 11.3402C112.137 10.7141 112.311 10.1928 112.662 9.7771C113.029 9.33325 113.525 9.11133 114.151 9.11133C114.763 9.11133 115.228 9.33325 115.543 9.7771C115.797 10.1294 115.922 10.5653 115.922 11.0831ZM115.019 10.8444C115.026 10.5706 114.964 10.3345 114.836 10.1355C114.671 9.87925 114.421 9.75068 114.082 9.75068C113.773 9.75068 113.521 9.87573 113.329 10.1267C113.172 10.3266 113.079 10.5653 113.048 10.8444H115.019Z" fill="black"/>
</svg>
