<svg width="31" height="32" viewBox="0 0 31 32" fill="none" xmlns="http://www.w3.org/2000/svg">
<path fill-rule="evenodd" clip-rule="evenodd" d="M14.8072 1.02914C15.4383 0.990196 16.0712 0.990286 16.7023 1.02941C17.9896 1.10533 19.2633 1.33362 20.4968 1.70951C22.5205 2.30604 24.3995 3.31368 26.0162 4.66942C27.9847 6.28103 29.4196 8.45068 30.1323 10.8932L30.1353 10.9035L30.1352 10.9036C30.4249 11.9296 30.5712 12.9909 30.5698 14.0571L30.5698 14.0649C30.5514 16.4626 29.8001 18.7974 28.4168 20.7557L28.4072 20.7693L28.4072 20.7692C27.7999 21.605 27.111 22.3784 26.3509 23.0779C24.29 25.0706 22.0798 26.9027 19.7395 28.5583C18.6389 29.3827 17.4549 30.0897 16.2071 30.6678L16.1772 30.6816L16.1466 30.6939C15.7847 30.8387 15.406 30.9371 15.0195 30.987L15.0185 30.9871C14.5787 31.0435 14.1354 30.9134 13.7958 30.6283C13.4754 30.3594 13.2748 29.9757 13.2357 29.5612C13.1752 29.1017 13.1979 28.6351 13.3024 28.1838C13.329 27.9772 13.3545 27.8173 13.3763 27.681C13.4144 27.4427 13.4409 27.2765 13.4409 27.0589V26.9844L13.4499 26.9104C13.4504 26.9058 13.449 26.9013 13.4461 26.8978C13.4432 26.8943 13.4391 26.8923 13.4347 26.892L13.3977 26.89L13.3608 26.8858C10.2107 26.5248 7.24522 25.2131 4.85884 23.1252C2.90824 21.463 1.53002 19.229 0.919478 16.7397C0.160615 13.7156 0.677833 10.5124 2.34987 7.88092C3.60328 5.86752 5.35765 4.21392 7.44141 3.08182C8.97382 2.21178 10.6425 1.60747 12.3766 1.29453L12.3936 1.29146L12.3936 1.29158C13.1926 1.15888 13.9984 1.07126 14.8072 1.02914ZM16.5507 3.50184C16.0191 3.46881 15.486 3.46881 14.9544 3.50184L14.9416 3.50263L14.9416 3.50256C14.2267 3.53958 13.5144 3.61676 12.8081 3.73374C11.3487 3.99809 9.9445 4.50776 8.65519 5.24115L8.6442 5.2474L8.63308 5.25343C6.9205 6.18182 5.4789 7.53998 4.45 9.19443L4.44331 9.20519L4.44325 9.20516C3.13314 11.2645 2.7279 13.7723 3.32276 16.1396L3.32456 16.1468L3.32453 16.1468C3.81146 18.1346 4.91242 19.9184 6.47089 21.2445L6.4844 21.256L6.48432 21.2561C8.48552 23.0089 10.9714 24.1126 13.613 24.4214C14.2851 24.4698 14.9098 24.7884 15.3437 25.3056C15.7701 25.8138 15.9757 26.47 15.9173 27.1286C15.9111 27.4503 15.8639 27.8087 15.8204 28.1C16.677 27.6583 17.4954 27.1454 18.2669 26.5664L18.281 26.5558L18.2954 26.5457C20.5417 24.9576 22.6628 23.1994 24.64 21.2866L24.6516 21.2754L24.6634 21.2645C25.3048 20.6755 25.8859 20.0241 26.3983 19.3199C27.4863 17.7768 28.0775 15.9381 28.0927 14.0497C28.0935 13.2154 27.9791 12.385 27.7529 11.5819C27.1791 9.61928 26.0249 7.87623 24.442 6.58201L24.4296 6.57185L24.4297 6.57177C23.0716 5.43165 21.4925 4.58468 19.7915 4.08404L19.7797 4.08057L19.7797 4.08052C18.7314 3.76064 17.6489 3.56646 16.5548 3.50208L16.5507 3.50184Z" fill="#4B4D53" stroke="#4B4D53" stroke-width="0.5"/>
<path d="M9.946 15.9992C10.9821 15.9992 11.822 15.1591 11.822 14.1227C11.822 13.0863 10.9821 12.2461 9.946 12.2461C8.9099 12.2461 8.06998 13.0863 8.06998 14.1227C8.06998 15.1591 8.9099 15.9992 9.946 15.9992Z" fill="#4B4D53" stroke="#4B4D53" stroke-width="0.5"/>
<path d="M15.5742 15.9992C16.6103 15.9992 17.4503 15.1591 17.4503 14.1227C17.4503 13.0863 16.6103 12.2461 15.5742 12.2461C14.5381 12.2461 13.6982 13.0863 13.6982 14.1227C13.6982 15.1591 14.5381 15.9992 15.5742 15.9992Z" fill="#4B4D53" stroke="#4B4D53" stroke-width="0.5"/>
<path d="M21.2024 15.9992C22.2385 15.9992 23.0785 15.1591 23.0785 14.1227C23.0785 13.0863 22.2385 12.2461 21.2024 12.2461C20.1663 12.2461 19.3264 13.0863 19.3264 14.1227C19.3264 15.1591 20.1663 15.9992 21.2024 15.9992Z" fill="#4B4D53" stroke="#4B4D53" stroke-width="0.5"/>
</svg>
