<svg width="31" height="30" viewBox="0 0 31 30" fill="none" xmlns="http://www.w3.org/2000/svg">
<path d="M15.5738 4.59369C16.8423 4.59369 17.8706 3.56535 17.8706 2.29684C17.8706 1.02833 16.8423 0 15.5738 0C14.3052 0 13.2769 1.02833 13.2769 2.29684C13.2769 3.56535 14.3052 4.59369 15.5738 4.59369Z" fill="#4B4D53"/>
<path d="M15.5738 29.9999C16.8423 29.9999 17.8706 28.9716 17.8706 27.7031C17.8706 26.4346 16.8423 25.4062 15.5738 25.4062C14.3052 25.4062 13.2769 26.4346 13.2769 27.7031C13.2769 28.9716 14.3052 29.9999 15.5738 29.9999Z" fill="#4B4D53"/>
<path d="M28.2769 17.2499C29.5454 17.2499 30.5737 16.2216 30.5737 14.9531C30.5737 13.6846 29.5454 12.6562 28.2769 12.6562C27.0084 12.6562 25.98 13.6846 25.98 14.9531C25.98 16.2216 27.0084 17.2499 28.2769 17.2499Z" fill="#4B4D53"/>
<path d="M2.87063 17.2499C4.13915 17.2499 5.16748 16.2216 5.16748 14.9531C5.16748 13.6846 4.13915 12.6562 2.87063 12.6562C1.60212 12.6562 0.573792 13.6846 0.573792 14.9531C0.573792 16.2216 1.60212 17.2499 2.87063 17.2499Z" fill="#4B4D53"/>
<path d="M21.3861 24.0466C21.3392 22.2185 22.7923 20.7185 24.6204 20.7185C24.6673 20.7185 24.6673 20.7185 24.7141 20.7185C24.6673 19.1248 23.5892 18.3279 23.4954 18.1873C23.636 18.1404 24.9954 18.3748 26.1204 17.2498C24.761 15.9842 24.761 13.8749 26.1204 12.5624C24.9954 11.4843 23.636 11.6718 23.5423 11.6249C23.5892 11.5312 24.6673 10.7343 24.7141 9.14056C24.6673 9.14056 24.6673 9.14056 24.6204 9.14056C22.8392 9.14056 21.3861 7.73433 21.3861 5.90623C21.3861 5.85936 21.3861 5.85936 21.3861 5.81248C20.5423 5.81248 19.7455 6.1406 19.1361 6.74997L18.8548 7.12496V6.74997C18.8548 5.85936 18.4799 5.06249 17.9174 4.5C16.6518 5.85936 14.4955 5.85936 13.2299 4.5C12.1518 5.57811 12.3393 6.98434 12.2924 7.07809C12.1987 6.98434 11.4018 5.90623 9.8081 5.90623C9.85497 7.68746 8.44874 9.23431 6.62064 9.23431C6.57377 9.23431 6.57377 9.23431 6.5269 9.23431C6.5269 10.7812 7.65188 11.6718 7.69875 11.7186C7.55813 11.7655 6.19878 11.5312 5.02692 12.6561C6.38627 13.9217 6.38627 16.0311 5.02692 17.3436C6.19878 18.4686 7.51126 18.2342 7.69875 18.2811C7.60501 18.4217 6.48002 19.2185 6.43315 20.8591C6.48002 20.8591 6.48002 20.8591 6.5269 20.8591C8.30812 20.8591 9.76123 22.3123 9.76123 24.0935C9.76123 24.1404 9.76123 24.1404 9.76123 24.1872C11.355 24.1872 12.1987 23.0622 12.2924 22.9685C12.3393 23.1091 12.1049 24.4685 13.2299 25.5935C13.8393 24.9841 14.6362 24.5622 15.5736 24.5622C16.5111 24.5622 17.308 24.9372 17.9174 25.5935C19.0423 24.4216 18.808 23.0622 18.8548 22.8747C18.9486 22.9216 19.7455 24.0466 21.3861 24.0466ZM18.3861 17.2967C18.1049 17.2967 17.9174 17.4842 17.9174 17.7654V20.5779L15.9486 18.6092C15.7611 18.4217 15.4799 18.4217 15.2924 18.6092L13.2299 20.6248V17.7654C13.2299 17.4842 13.0424 17.2967 12.7612 17.2967H9.9956L11.9643 15.328C12.1518 15.1405 12.1518 14.8592 11.9643 14.6717L9.94872 12.6561H12.7612C13.0424 12.6561 13.2299 12.4686 13.2299 12.1874V9.37493L15.2455 11.3905C15.433 11.578 15.7143 11.578 15.9018 11.3905L17.9174 9.37493V12.1405C17.9174 12.4218 18.1049 12.6093 18.3861 12.6093H21.2454L19.2298 14.6249C19.0423 14.8124 19.0423 15.0936 19.2298 15.2811L21.1986 17.2498H18.3861V17.2967Z" fill="#4B4D53"/>
<path d="M24.5738 8.29681C25.8423 8.29681 26.8706 7.26848 26.8706 5.99997C26.8706 4.73146 25.8423 3.70312 24.5738 3.70312C23.3052 3.70312 22.2769 4.73146 22.2769 5.99997C22.2769 7.26848 23.3052 8.29681 24.5738 8.29681Z" fill="#4B4D53"/>
<path d="M6.57376 26.2968C7.84227 26.2968 8.8706 25.2685 8.8706 24C8.8706 22.7315 7.84227 21.7031 6.57376 21.7031C5.30525 21.7031 4.27692 22.7315 4.27692 24C4.27692 25.2685 5.30525 26.2968 6.57376 26.2968Z" fill="#4B4D53"/>
<path d="M24.6206 26.2499C25.8891 26.2499 26.9175 25.2216 26.9175 23.9531C26.9175 22.6846 25.8891 21.6562 24.6206 21.6562C23.3521 21.6562 22.3238 22.6846 22.3238 23.9531C22.3238 25.2216 23.3521 26.2499 24.6206 26.2499Z" fill="#4B4D53"/>
<path d="M6.62063 8.24994C7.88915 8.24994 8.91748 7.2216 8.91748 5.95309C8.91748 4.68458 7.88915 3.65625 6.62063 3.65625C5.35212 3.65625 4.32379 4.68458 4.32379 5.95309C4.32379 7.2216 5.35212 8.24994 6.62063 8.24994Z" fill="#4B4D53"/>
</svg>
