<svg width="33" height="32" viewBox="0 0 33 32" fill="none" xmlns="http://www.w3.org/2000/svg">
<path d="M27.6393 1H5.5082C4.31586 1.01069 3.17538 1.4891 2.33224 2.33224C1.4891 3.17539 1.01069 4.31586 1 5.5082V26.4918C1.01069 27.6841 1.4891 28.8246 2.33224 29.6678C3.17538 30.5109 4.31586 30.9893 5.5082 31H27.6393C28.8317 30.9893 29.9722 30.5109 30.8153 29.6678C31.6584 28.8246 32.1368 27.6841 32.1475 26.4918V5.5082C32.1368 4.31586 31.6584 3.17539 30.8153 2.33224C29.9722 1.4891 28.8317 1.01069 27.6393 1ZM29.6885 26.4918C29.678 27.032 29.4588 27.5471 29.0767 27.9292C28.6947 28.3112 28.1795 28.5305 27.6393 28.541H5.5082C4.968 28.5305 4.45286 28.3112 4.07082 27.9292C3.68877 27.5471 3.46951 27.032 3.45902 26.4918V14.224H29.6885V26.4918ZM3.45902 11.765V5.5082C3.46951 4.96801 3.68877 4.45286 4.07082 4.07082C4.45286 3.68877 4.968 3.46951 5.5082 3.45902H27.6393C28.1795 3.46951 28.6947 3.68877 29.0767 4.07082C29.4588 4.45286 29.678 4.96801 29.6885 5.5082V11.765H3.45902Z" fill="#4B4D53" stroke="#4B4D53" stroke-width="0.5"/>
<path d="M24.1563 6.5H8.99233C8.66624 6.5 8.35351 6.62954 8.12293 6.86011C7.89235 7.09069 7.76282 7.40342 7.76282 7.72951C7.75709 7.89251 7.78498 8.05495 7.84474 8.20671C7.9045 8.35847 7.99486 8.49631 8.1102 8.61164C8.22553 8.72697 8.36336 8.81733 8.51512 8.87709C8.66688 8.93685 8.82932 8.96474 8.99233 8.95902H24.1563C24.3193 8.96474 24.4817 8.93685 24.6335 8.87709C24.7852 8.81733 24.9231 8.72697 25.0384 8.61164C25.1537 8.49631 25.2441 8.35847 25.3038 8.20671C25.3636 8.05495 25.3915 7.89251 25.3858 7.72951C25.3858 7.40342 25.2562 7.09069 25.0257 6.86011C24.7951 6.62954 24.4823 6.5 24.1563 6.5Z" fill="#4B4D53" stroke="#4B4D53" stroke-width="0.5"/>
</svg>
