<svg width="14" height="14" viewBox="0 0 14 14" fill="none" xmlns="http://www.w3.org/2000/svg">
<path opacity="0.9" d="M9.90485 8.40378L9.89364 8.53854L10.0258 8.50977C10.895 8.32052 11.5655 8.06264 12.0214 7.79917C12.2491 7.66759 12.4265 7.53275 12.5483 7.40166C12.6678 7.27296 12.7452 7.13551 12.7452 7C12.7452 6.86449 12.6678 6.72704 12.5483 6.59834C12.4265 6.46725 12.2491 6.33241 12.0214 6.20083C11.5655 5.93736 10.895 5.67948 10.0258 5.49023L9.89364 5.46146L9.90485 5.59622C9.94336 6.05946 9.96448 6.52981 9.96448 7C9.96448 7.47019 9.94336 7.94054 9.90485 8.40378ZM5.59622 9.90485L5.46146 9.89364L5.49023 10.0258C5.67948 10.895 5.93736 11.5655 6.20083 12.0214C6.33241 12.2491 6.46725 12.4265 6.59834 12.5483C6.72704 12.6678 6.86449 12.7452 7 12.7452C7.13551 12.7452 7.27296 12.6678 7.40166 12.5483C7.53275 12.4265 7.66759 12.2491 7.79917 12.0214C8.06264 11.5655 8.32052 10.895 8.50977 10.0258L8.53854 9.89364L8.40378 9.90485C7.94054 9.94336 7.47019 9.96448 7 9.96448C6.52981 9.96448 6.05946 9.94336 5.59622 9.90485ZM5.27396 8.63679L5.28228 8.71772L5.36321 8.72604C5.86639 8.77777 6.40916 8.80964 7 8.80964C7.59084 8.80964 8.13361 8.77778 8.63679 8.72604L8.71772 8.71772L8.72604 8.63679C8.77777 8.13361 8.80964 7.59084 8.80964 7C8.80964 6.40916 8.77777 5.86639 8.72604 5.36321L8.71772 5.28228L8.63679 5.27396C8.13361 5.22223 7.59084 5.19036 7 5.19036C6.40916 5.19036 5.86639 5.22223 5.36321 5.27396L5.28228 5.28228L5.27396 5.36321C5.22223 5.86639 5.19036 6.40916 5.19036 7C5.19036 7.59084 5.22222 8.13361 5.27396 8.63679ZM4.09515 5.59622L4.10636 5.46146L3.97422 5.49023C3.10499 5.67948 2.43447 5.93736 1.97859 6.20083C1.75092 6.33241 1.57354 6.46725 1.45173 6.59834C1.33215 6.72704 1.25484 6.86449 1.25484 7C1.25484 7.13551 1.33215 7.27296 1.45173 7.40166C1.57354 7.53275 1.75092 7.66759 1.97859 7.79917C2.43447 8.06264 3.10499 8.32052 3.97422 8.50977L4.10636 8.53854L4.09515 8.40378C4.05664 7.94054 4.03552 7.4702 4.03552 7C4.03552 6.5298 4.05663 6.05946 4.09515 5.59622ZM8.40378 4.09515L8.53854 4.10636L8.50977 3.97422C8.32052 3.10499 8.06264 2.43447 7.79917 1.97859C7.66759 1.75092 7.53275 1.57354 7.40166 1.45173C7.27296 1.33215 7.13551 1.25484 7 1.25484C6.86449 1.25484 6.72704 1.33215 6.59834 1.45173C6.46725 1.57354 6.33241 1.75092 6.20083 1.97859C5.93736 2.43447 5.67948 3.10499 5.49023 3.97422L5.46146 4.10636L5.59622 4.09515C6.05946 4.05664 6.5298 4.03552 7 4.03552C7.4702 4.03552 7.94054 4.05663 8.40378 4.09515ZM12.1933 4.99098L12.4241 5.10009L12.3288 4.86323C11.7449 3.41249 10.5875 2.25509 9.13677 1.67124L8.89991 1.57591L9.00902 1.80674C9.32468 2.4745 9.56255 3.29708 9.72289 4.19622L9.73513 4.26487L9.80378 4.27711C10.7029 4.43745 11.5255 4.67532 12.1933 4.99098ZM4.99098 1.80677L5.10009 1.57594L4.86323 1.67126C3.41253 2.25512 2.25512 3.41246 1.67126 4.86321L1.57593 5.10008L1.80677 4.99095C2.47453 4.67527 3.29711 4.43745 4.19622 4.27711L4.26487 4.26487L4.27711 4.19622C4.43745 3.29711 4.67532 2.47453 4.99098 1.80677ZM1.8068 9.00905L1.57596 8.89992L1.67129 9.13679C2.25515 10.5875 3.41252 11.7449 4.86321 12.3287L5.10008 12.424L4.99095 12.1932C4.67527 11.5254 4.43745 10.7029 4.27711 9.80378L4.26487 9.73513L4.19622 9.72289C3.29711 9.56255 2.47455 9.32473 1.8068 9.00905ZM9.00905 12.1932L8.89992 12.4241L9.13679 12.3287C10.5875 11.7449 11.7449 10.5875 12.3287 9.13677L12.4241 8.89991L12.1932 9.00902C11.5255 9.32468 10.7029 9.56255 9.80378 9.72289L9.73513 9.73513L9.72289 9.80378C9.56255 10.7029 9.32473 11.5255 9.00905 12.1932ZM0.1 7C0.1 3.19535 3.19535 0.1 7 0.1C10.8047 0.1 13.9 3.19535 13.9 7C13.9 10.8047 10.8046 13.9 7 13.9C3.19535 13.9 0.1 10.8046 0.1 7Z" fill="#333333" stroke="#F9F9F9" stroke-width="0.2"/>
</svg>
