<svg width="200" height="29" viewBox="0 0 200 29" fill="none" xmlns="http://www.w3.org/2000/svg">
<path fill-rule="evenodd" clip-rule="evenodd" d="M53.3068 17.078C44.7143 19.6987 34.7938 22.3068 25.2503 22.958C17.0932 23.5138 9.21427 22.6505 2.76523 18.9773C1.85614 18.4601 0.717721 18.8156 0.22608 19.7728C-0.266311 20.7291 0.0724385 21.9268 0.981525 22.4447C8.01664 26.4507 16.5948 27.4985 25.4923 26.8914C35.2075 26.2291 45.3072 23.6037 54.072 20.9451C55.089 23.1125 57.195 25.1332 60.9048 26.6241C66.6029 28.9144 74.3829 28.886 82.5789 27.5954C94.466 25.7245 107.253 21.2629 115.475 18.0927C115.812 17.9634 116.314 17.7576 116.929 17.4864C117.116 17.9216 117.326 18.3505 117.558 18.7715C119.574 22.4408 123.142 25.4076 126.776 26.4672C149.83 33.1861 176.735 25.1356 198.641 18.5839C199.631 18.2866 200.208 17.1955 199.931 16.1493C199.646 15.103 198.611 14.4952 197.615 14.7924C176.323 21.1612 150.182 29.1967 127.773 22.6678C125.015 21.8636 122.332 19.5836 120.803 16.7989C120.631 16.4883 120.481 16.1705 120.339 15.8481C123.359 14.2736 126.911 12.0787 128.822 9.72921C130.786 7.32061 131.273 4.7496 129.564 2.32128C128.095 0.245392 125.87 0.0687843 123.554 1.14497C121.058 2.29763 118.487 4.99239 117.656 6.257C116.097 8.61909 115.602 11.1815 115.887 13.6799C115.152 14.0063 114.556 14.2492 114.188 14.3911C106.146 17.4911 93.6476 21.8668 82.0243 23.6968C74.5455 24.8746 67.4415 25.0315 62.2418 22.9422C60.0242 22.0505 58.5589 21.0098 57.7638 19.802C59.3331 19.3084 60.8463 18.8228 62.292 18.3592C65.1512 17.4423 71.1041 15.9246 75.3572 13.2195C78.7395 11.0687 81.0328 8.14293 80.8994 4.47523C80.8312 2.59092 79.7947 1.33338 78.1452 0.628535C75.6802 -0.423997 71.4173 0.0853071 69.83 0.440093C65.0155 1.51391 58.5897 5.95901 55.4105 10.9678C54.1417 12.9664 53.387 15.0573 53.3068 17.078ZM57.2617 15.8465C58.6219 15.416 59.9365 14.9934 61.1993 14.5882C63.8681 13.732 69.447 12.3719 73.4183 9.84586C75.5213 8.50871 77.2383 6.90668 77.1551 4.6258C77.1484 4.4484 76.9813 4.39796 76.8336 4.32543C76.605 4.21426 76.3435 4.13776 76.0647 4.07784C74.1783 3.6726 71.6444 4.06442 70.6072 4.29622C66.5676 5.19737 61.194 8.95417 58.5267 13.1572C57.9631 14.045 57.5142 14.9493 57.2617 15.8465ZM119.589 11.865C121.35 10.9118 123.194 9.75914 124.648 8.50478C125.42 7.83857 126.072 7.15346 126.484 6.44231C126.829 5.85416 126.964 5.25177 126.552 4.66992C126.387 4.43419 126.139 4.42949 125.885 4.47364C125.615 4.52094 125.337 4.62183 125.06 4.75192C123.231 5.59868 121.343 7.57681 120.736 8.50478C120.024 9.58096 119.672 10.7194 119.589 11.865Z" fill="#4aa162"/>
</svg>
