<svg width="119" height="100" viewBox="0 0 119 100" fill="none" xmlns="http://www.w3.org/2000/svg">
<path d="M18.1835 42.992C12.0258 44.758 5.95216 46.9258 0 49.4954C0 37.0678 0 24.6403 0 12.2127C5.95216 9.64306 12.0258 7.47524 18.1835 5.70921V13.7171C14.6702 14.7262 11.1848 15.8568 7.73687 17.1276C7.73687 19.3422 7.73687 21.5661 7.73687 23.7806C11.1848 22.5098 14.6702 21.3698 18.1835 20.37V28.3498C14.6702 29.359 11.1848 30.4896 7.73687 31.7604C7.73687 33.975 7.73687 36.1988 7.73687 38.4134C11.1848 37.1426 14.6702 36.0026 18.1835 35.0028V42.9826V42.992Z" fill="#002C45"/>
<path d="M44.2161 32.6761C42.4127 34.6384 40.5999 36.6287 38.8058 38.647C33.405 39.3945 28.0228 40.4317 22.7061 41.7772V4.49448C28.0228 3.14894 33.3956 2.11175 38.8058 1.36423C40.6093 2.89665 42.4127 4.45711 44.2161 6.0456V32.6668V32.6761ZM36.0867 31.069V9.77387C34.2927 10.0542 32.508 10.3625 30.7326 10.7083V32.0034C32.5173 31.6576 34.302 31.3493 36.0867 31.069Z" fill="#002C45"/>
<path d="M69.9682 0.373762C67.2491 6.7464 64.5206 13.1845 61.7922 19.7066V37.2828C59.073 37.236 56.3539 37.2547 53.6442 37.3575V19.7814C50.925 13.3153 48.2153 6.9146 45.5055 0.598019C48.2153 0.34573 50.925 0.177537 53.6442 0.0747524C55.0084 3.49467 56.3726 6.92394 57.7275 10.3812C59.0824 6.90525 60.4373 3.43861 61.7922 0C64.5206 0.0467202 67.2397 0.177537 69.9682 0.373762Z" fill="#002C45"/>
<path d="M92.8238 35.797C91.0484 37.1613 89.2637 38.5535 87.4697 39.9832C83.8909 39.2917 80.2934 38.7311 76.6866 38.3012C74.8832 36.311 73.0705 34.3487 71.2671 32.4238V5.80265C73.0798 4.17678 74.8832 2.57895 76.6866 1.01849C80.2934 1.44832 83.8909 2.00896 87.4697 2.70042C89.2544 4.82152 91.0391 6.98 92.8238 9.17585V35.797ZM84.7692 31.5081V10.213C82.9845 9.90468 81.1905 9.62436 79.3964 9.37207V30.6672C81.1905 30.9101 82.9752 31.1904 84.7692 31.5081Z" fill="#002C45"/>
<path d="M118.211 44.1693C116.511 45.2065 114.801 46.2811 113.082 47.393C109.643 46.0568 106.167 44.8514 102.654 43.7769C100.897 41.4595 99.1403 39.1796 97.3743 36.937C97.3743 26.2848 97.3743 15.6326 97.3743 4.98038C100.028 5.69052 102.672 6.46608 105.298 7.32573V36.6287C107.036 37.1987 108.765 37.7967 110.484 38.4321V9.11979C113.082 10.0729 115.661 11.1101 118.211 12.2127V44.1693Z" fill="#002C45"/>
<path d="M49.9719 75.1261L50.5419 65.3523L46.9071 65.1654L46.3371 74.8925C46.1128 78.4526 47.3276 81.8352 49.7664 84.4328C52.1117 86.937 55.27 88.3573 58.6899 88.4601V84.8346C56.2885 84.7318 54.074 83.7227 52.4201 81.9566C50.6821 80.0972 49.8037 77.6677 49.9719 75.1168V75.1261Z" fill="#002C45"/>
<path d="M87.0772 74.1544C86.9651 73.6591 86.7875 73.1919 86.5446 72.7528C85.8157 71.4259 85.3205 70.0243 85.1243 68.5199C84.9467 67.1557 85.0121 65.8008 85.2925 64.4552C85.8344 61.7922 84.6571 59.2039 82.293 57.8864C81.2558 57.307 79.7608 57.0174 78.9479 56.2044C77.7892 55.0364 77.4061 53.1863 76.7894 51.6259C75.9484 49.4954 74.3973 48.2059 72.1454 47.7574C71.5474 47.636 70.9494 47.6733 70.3513 47.7014C67.4734 47.8322 64.8944 47.0192 62.5771 45.3186C61.6987 44.6739 60.7083 44.3188 59.6337 44.1973C59.5963 44.1973 59.559 44.1787 59.5216 44.1693H58.4377C58.1574 44.216 57.8864 44.2628 57.6154 44.3188C56.8025 44.5057 56.083 44.8795 55.4195 45.384C53.9619 46.5053 52.2799 47.1501 50.5139 47.5612C49.4674 47.8041 48.4022 47.8509 47.3276 47.7761C44.6646 47.5986 42.2725 49.1684 41.3194 51.6913C40.712 53.3078 39.8243 54.7468 38.6096 55.9802C37.806 56.7931 36.8996 57.4565 35.9092 58.0172C34.1805 58.9983 33.1433 60.4653 32.807 62.4182C32.6761 63.1564 32.7322 63.8946 32.8817 64.6234C33.5078 67.5762 33.0873 70.3794 31.6576 73.0331C31.2839 73.7339 31.069 74.4814 31.0129 75.2663C31.0129 75.313 30.9942 75.3504 30.9849 75.3971V76.1446C31.0129 76.3596 31.0503 76.5745 31.0783 76.7894C31.2932 78.0508 31.8539 79.1347 32.7602 80.0505C34.5169 81.8258 35.6475 83.9469 36.1334 86.3951C36.2362 86.8996 36.2456 87.4136 36.311 87.9275C36.5819 89.9645 37.6285 91.4876 39.4132 92.5061C40.0392 92.8611 40.7214 93.0293 41.4128 93.1975C44.1319 93.8796 46.3558 95.3467 48.0564 97.5705C49.1403 98.9815 50.5606 99.7757 52.3173 99.972C52.3454 99.972 52.364 99.9907 52.3921 100H53.448C53.7283 99.9439 54.0179 99.9159 54.2889 99.8412C54.8682 99.673 55.4382 99.458 56.0176 99.2992C58.3255 98.6451 60.6148 98.7292 62.9041 99.402C63.6143 99.6075 64.3338 99.7851 65.0439 99.972C65.0626 99.972 65.0813 99.9907 65.1 100H65.4737C65.7821 99.9533 66.0998 99.9159 66.4081 99.8598C67.9779 99.5982 69.2861 98.8694 70.2672 97.5986C71.1362 96.4679 72.1267 95.4681 73.3134 94.6739C74.5655 93.8423 75.9204 93.2816 77.3874 92.9639C79.7608 92.45 81.7137 90.3476 82.0314 87.9462C82.1248 87.2641 82.1716 86.5726 82.293 85.8998C82.7042 83.704 83.7227 81.7978 85.2364 80.1719C85.713 79.658 86.1895 79.1441 86.5259 78.518C86.909 77.7985 87.1426 77.0417 87.2267 76.2287C87.2267 76.2007 87.2454 76.1727 87.2547 76.1353V75.0514C87.1987 74.7524 87.1519 74.4534 87.0865 74.1544H87.0772ZM69.8374 85.7597C67.0249 88.7591 63.2125 90.4037 59.1011 90.4037C54.9897 90.4037 51.1773 88.7498 48.3648 85.7597C45.5616 82.7696 44.16 78.8638 44.4216 74.7804L45.085 63.5582L45.3373 59.3908C45.3373 59.2506 45.3467 58.7554 45.7204 58.3536C46.0101 58.0452 46.4212 57.8864 46.9538 57.8864C47.0473 57.8864 47.1501 57.8864 47.2529 57.9051C48.7666 58.0546 51.2988 58.1387 51.3175 58.1387C51.3642 58.1387 51.8782 58.1574 52.2986 58.5872C52.6631 58.9703 52.8312 59.5309 52.7939 60.2598L52.5696 63.5956V63.9413L51.8875 75.2476C51.7567 77.2566 52.4481 79.1721 53.8217 80.6391C55.2046 82.1062 57.0734 82.9191 59.0918 82.9191C61.1101 82.9191 62.9882 82.1062 64.3618 80.6391C65.7354 79.1721 66.4268 77.2566 66.296 75.2476L65.6887 65.7634L65.6419 65.3616L65.2682 59.2693C65.2308 58.7367 65.6419 58.2788 66.1745 58.2415L71.7436 57.8864H71.7903C72.2949 57.8864 72.7247 58.2788 72.7528 58.7927L73.0705 64.0067L73.1078 64.3805L73.7713 74.7711C74.0329 78.8638 72.6313 82.7602 69.8281 85.7597H69.8374Z" fill="#002C45"/>
<path d="M44.8234 62.7827L53.1676 63.3059" stroke="#002C45" stroke-width="2" stroke-miterlimit="10"/>
<path d="M73.5096 62.7827L65.1654 63.3059" stroke="#002C45" stroke-width="2" stroke-miterlimit="10"/>
</svg>
