<svg width="24" height="35" viewBox="0 0 24 35" fill="none" xmlns="http://www.w3.org/2000/svg">
<g opacity="0.5">
<path d="M11.7976 0.000210694C8.66873 0.000210694 5.66773 1.24313 3.45557 3.45578C1.24292 5.66815 0 8.66887 0 11.7978V23.2024C0 26.3315 1.24292 29.3323 3.45557 31.5444C5.66794 33.7571 8.66894 35 11.7976 35C14.9263 35 17.9275 33.7571 20.1397 31.5444C22.3523 29.3321 23.5952 26.3313 23.5952 23.2024V11.7978C23.5952 9.72674 23.0502 7.69239 22.0146 5.89891C20.9791 4.10543 19.4898 2.61617 17.6963 1.58063C15.9028 0.545088 13.8682 0 11.7974 0L11.7976 0.000210694ZM20.4494 23.2026C20.4494 26.2936 18.8005 29.1498 16.1236 30.6956C13.4466 32.2411 10.1487 32.2411 7.47189 30.6956C4.79511 29.1501 3.14616 26.2939 3.14616 23.2026V11.798C3.14616 8.707 4.79504 5.85081 7.47189 4.30501C10.1489 2.7595 13.4468 2.7595 16.1236 4.30501C18.8004 5.85053 20.4494 8.70672 20.4494 11.798V23.2026Z" fill="white"/>
<mask id="mask0_621_8819" style="mask-type:alpha" maskUnits="userSpaceOnUse" x="10" y="8" width="4" height="8">
<path d="M12.0727 8.16797C11.6555 8.16797 11.2555 8.33366 10.9603 8.62855C10.6654 8.92371 10.4998 9.32366 10.4998 9.74091V14.2084C10.4998 14.7702 10.7996 15.2895 11.2862 15.5707C11.7728 15.8516 12.3725 15.8516 12.8591 15.5707C13.3457 15.2895 13.6456 14.7702 13.6456 14.2084V9.74091C13.6456 9.32368 13.4799 8.9237 13.185 8.62855C12.8898 8.33366 12.4899 8.16797 12.0726 8.16797H12.0727Z" fill="white"/>
</mask>
<g mask="url(#mask0_621_8819)">
<rect width="36.1667" height="11.6667" transform="matrix(-4.37114e-08 1 1 4.37114e-08 5.8335 -3.5)" fill="white"/>
</g>
</g>
</svg>
