<svg width="31" height="32" viewBox="0 0 31 32" fill="none" xmlns="http://www.w3.org/2000/svg">
<path fill-rule="evenodd" clip-rule="evenodd" d="M28.4318 1H2.71457C1.53097 1 0.571472 1.9595 0.571472 3.1431C0.571472 4.3267 1.53097 5.2862 2.71457 5.2862H28.4318C29.6154 5.2862 30.5749 4.3267 30.5749 3.1431C30.5749 1.9595 29.6154 1 28.4318 1ZM28.433 9.57227H19.8606C18.677 9.57227 17.7175 10.5318 17.7175 11.7154C17.7175 12.899 18.677 13.8585 19.8606 13.8585H28.433C29.6166 13.8585 30.5761 12.899 30.5761 11.7154C30.5761 10.5318 29.6166 9.57227 28.433 9.57227ZM28.433 18.1504H19.8606C18.677 18.1504 17.7175 19.1099 17.7175 20.2935C17.7175 21.4771 18.677 22.4366 19.8606 22.4366H28.433C29.6166 22.4366 30.5761 21.4771 30.5761 20.2935C30.5761 19.1099 29.6166 18.1504 28.433 18.1504ZM2.71457 26.7139H28.4318C29.6154 26.7139 30.5749 27.6734 30.5749 28.857C30.5749 30.0406 29.6154 31.0001 28.4318 31.0001H2.71457C1.53097 31.0001 0.571472 30.0406 0.571472 28.857C0.571472 27.6734 1.53097 26.7139 2.71457 26.7139ZM0.571472 15.5723C0.571472 12.2586 3.25776 9.57227 6.57147 9.57227H7.43008C10.7438 9.57227 13.4301 12.2586 13.4301 15.5723V16.4309C13.4301 19.7446 10.7438 22.4309 7.43008 22.4309H6.57147C3.25776 22.4309 0.571472 19.7446 0.571472 16.4309V15.5723ZM7.00078 18.1447C8.18438 18.1447 9.14388 17.1852 9.14388 16.0016C9.14388 14.818 8.18438 13.8585 7.00078 13.8585C5.81717 13.8585 4.85768 14.818 4.85768 16.0016C4.85768 17.1852 5.81717 18.1447 7.00078 18.1447Z" fill="#4B4D53"/>
<path d="M2.71457 1.25H28.4318V0.75H2.71457V1.25ZM0.821472 3.1431C0.821472 2.09757 1.66904 1.25 2.71457 1.25V0.75C1.3929 0.75 0.321472 1.82143 0.321472 3.1431H0.821472ZM2.71457 5.0362C1.66904 5.0362 0.821472 4.18863 0.821472 3.1431H0.321472C0.321472 4.46477 1.3929 5.5362 2.71457 5.5362V5.0362ZM28.4318 5.0362H2.71457V5.5362H28.4318V5.0362ZM30.3249 3.1431C30.3249 4.18863 29.4773 5.0362 28.4318 5.0362V5.5362C29.7535 5.5362 30.8249 4.46477 30.8249 3.1431H30.3249ZM28.4318 1.25C29.4773 1.25 30.3249 2.09757 30.3249 3.1431H30.8249C30.8249 1.82143 29.7535 0.75 28.4318 0.75V1.25ZM19.8606 9.82227H28.433V9.32227H19.8606V9.82227ZM17.9675 11.7154C17.9675 10.6698 18.815 9.82227 19.8606 9.82227V9.32227C18.5389 9.32227 17.4675 10.3937 17.4675 11.7154H17.9675ZM19.8606 13.6085C18.815 13.6085 17.9675 12.7609 17.9675 11.7154H17.4675C17.4675 13.037 18.5389 14.1085 19.8606 14.1085V13.6085ZM28.433 13.6085H19.8606V14.1085H28.433V13.6085ZM30.3261 11.7154C30.3261 12.7609 29.4785 13.6085 28.433 13.6085V14.1085C29.7546 14.1085 30.8261 13.037 30.8261 11.7154H30.3261ZM28.433 9.82227C29.4785 9.82227 30.3261 10.6698 30.3261 11.7154H30.8261C30.8261 10.3937 29.7546 9.32227 28.433 9.32227V9.82227ZM19.8606 18.4004H28.433V17.9004H19.8606V18.4004ZM17.9675 20.2935C17.9675 19.248 18.815 18.4004 19.8606 18.4004V17.9004C18.5389 17.9004 17.4675 18.9718 17.4675 20.2935H17.9675ZM19.8606 22.1866C18.815 22.1866 17.9675 21.339 17.9675 20.2935H17.4675C17.4675 21.6152 18.5389 22.6866 19.8606 22.6866V22.1866ZM28.433 22.1866H19.8606V22.6866H28.433V22.1866ZM30.3261 20.2935C30.3261 21.339 29.4785 22.1866 28.433 22.1866V22.6866C29.7546 22.6866 30.8261 21.6152 30.8261 20.2935H30.3261ZM28.433 18.4004C29.4785 18.4004 30.3261 19.248 30.3261 20.2935H30.8261C30.8261 18.9718 29.7546 17.9004 28.433 17.9004V18.4004ZM28.4318 26.4639H2.71457V26.9639H28.4318V26.4639ZM30.8249 28.857C30.8249 27.5353 29.7535 26.4639 28.4318 26.4639V26.9639C29.4773 26.9639 30.3249 27.8114 30.3249 28.857H30.8249ZM28.4318 31.2501C29.7535 31.2501 30.8249 30.1786 30.8249 28.857H30.3249C30.3249 29.9025 29.4773 30.7501 28.4318 30.7501V31.2501ZM2.71457 31.2501H28.4318V30.7501H2.71457V31.2501ZM0.321472 28.857C0.321472 30.1786 1.3929 31.2501 2.71457 31.2501V30.7501C1.66904 30.7501 0.821472 29.9025 0.821472 28.857H0.321472ZM2.71457 26.4639C1.3929 26.4639 0.321472 27.5353 0.321472 28.857H0.821472C0.821472 27.8114 1.66904 26.9639 2.71457 26.9639V26.4639ZM6.57147 9.32227C3.11969 9.32227 0.321472 12.1205 0.321472 15.5723H0.821472C0.821472 12.3966 3.39583 9.82227 6.57147 9.82227V9.32227ZM7.43008 9.32227H6.57147V9.82227H7.43008V9.32227ZM13.6801 15.5723C13.6801 12.1205 10.8819 9.32227 7.43008 9.32227V9.82227C10.6057 9.82227 13.1801 12.3966 13.1801 15.5723H13.6801ZM13.6801 16.4309V15.5723H13.1801V16.4309H13.6801ZM7.43008 22.6809C10.8819 22.6809 13.6801 19.8827 13.6801 16.4309H13.1801C13.1801 19.6065 10.6057 22.1809 7.43008 22.1809V22.6809ZM6.57147 22.6809H7.43008V22.1809H6.57147V22.6809ZM0.321472 16.4309C0.321472 19.8827 3.11969 22.6809 6.57147 22.6809V22.1809C3.39583 22.1809 0.821472 19.6065 0.821472 16.4309H0.321472ZM0.321472 15.5723V16.4309H0.821472V15.5723H0.321472ZM8.89388 16.0016C8.89388 17.0471 8.04631 17.8947 7.00078 17.8947V18.3947C8.32245 18.3947 9.39388 17.3232 9.39388 16.0016H8.89388ZM7.00078 14.1085C8.04631 14.1085 8.89388 14.956 8.89388 16.0016H9.39388C9.39388 14.6799 8.32245 13.6085 7.00078 13.6085V14.1085ZM5.10768 16.0016C5.10768 14.956 5.95525 14.1085 7.00078 14.1085V13.6085C5.6791 13.6085 4.60768 14.6799 4.60768 16.0016H5.10768ZM7.00078 17.8947C5.95525 17.8947 5.10768 17.0471 5.10768 16.0016H4.60768C4.60768 17.3232 5.6791 18.3947 7.00078 18.3947V17.8947Z" fill="white"/>
</svg>
