<svg width="20" height="20" viewBox="0 0 20 20" fill="none" xmlns="http://www.w3.org/2000/svg">
<path fill-rule="evenodd" clip-rule="evenodd" d="M2 9C2 5.13401 5.13401 2 9 2C12.866 2 16 5.13401 16 9C16 10.8829 15.2566 12.5921 14.0473 13.8502C14.0109 13.8778 13.976 13.9081 13.9428 13.9413C13.9095 13.9746 13.8791 14.0096 13.8515 14.0461C12.5933 15.2561 10.8835 16 9 16C5.13401 16 2 12.866 2 9ZM14.6185 16.0312C13.0787 17.2633 11.1254 18 9 18C4.02944 18 0 13.9706 0 9C0 4.02944 4.02944 0 9 0C13.9706 0 18 4.02944 18 9C18 11.1246 17.2638 13.0773 16.0326 14.6169L19.707 18.2913C20.0975 18.6819 20.0975 19.315 19.707 19.7055C19.3165 20.0961 18.6833 20.0961 18.2928 19.7055L14.6185 16.0312Z" fill="black"/>
</svg>
