<svg width="200" height="62" viewBox="0 0 200 62" fill="none" xmlns="http://www.w3.org/2000/svg">
<rect width="200" height="62" rx="31" fill="#F9F9F9"/>
<rect x="0.75" y="0.75" width="198.5" height="60.5" rx="30.25" stroke="#282828" stroke-opacity="0.5" stroke-width="1.5"/>
<path d="M50.1148 29.6371C50.0761 25.4472 53.6335 23.4088 53.7961 23.3139C51.7815 20.45 48.6588 20.0587 47.5615 20.0275C44.9388 19.7584 42.3948 21.5576 41.0588 21.5576C39.6961 21.5576 37.6388 20.0535 35.4215 20.0977C32.5681 20.1406 29.8988 21.7513 28.4348 24.2525C25.4135 29.3524 27.6668 36.8469 30.5615 40.9692C32.0095 42.9881 33.7015 45.2423 35.9161 45.163C38.0828 45.0759 38.8921 43.8162 41.5068 43.8162C44.0975 43.8162 44.8575 45.163 47.1161 45.1123C49.4415 45.0759 50.9055 43.0843 52.3028 41.0472C53.9761 38.7332 54.6481 36.4543 54.6748 36.3373C54.6201 36.3191 50.1588 34.659 50.1148 29.6371Z" fill="black"/>
<path d="M45.8481 17.3157C47.0135 15.8948 47.8108 13.9617 47.5895 12C45.9028 12.0728 43.7935 13.1375 42.5788 14.5272C41.5041 15.7518 40.5441 17.759 40.7921 19.6466C42.6868 19.7844 44.6321 18.7145 45.8481 17.3157Z" fill="black"/>
<path d="M81.4707 44.8727H78.4427L76.7841 39.791H71.0187L69.4387 44.8727H66.4907L72.2027 27.5723H75.7307L81.4707 44.8727ZM76.2841 37.659L74.7841 33.1415C74.6254 32.68 74.3281 31.5932 73.8894 29.8824H73.8361C73.6614 30.6182 73.3801 31.705 72.9934 33.1415L71.5201 37.659H76.2841Z" fill="black"/>
<path d="M96.1601 38.4807C96.1601 40.6023 95.5721 42.2793 94.3961 43.5104C93.3427 44.6063 92.0347 45.1536 90.4734 45.1536C88.7881 45.1536 87.5774 44.5634 86.8401 43.383H86.7867V49.9545H83.9441V36.5034C83.9441 35.1696 83.9081 33.8007 83.8387 32.3967H86.3387L86.4974 34.374H86.5507C87.4987 32.8842 88.9374 32.1406 90.8681 32.1406C92.3774 32.1406 93.6374 32.7217 94.6454 33.8852C95.6561 35.05 96.1601 36.5814 96.1601 38.4807ZM93.2641 38.5821C93.2641 37.3679 92.9841 36.3669 92.4214 35.5791C91.8067 34.7575 90.9814 34.3467 89.9467 34.3467C89.2454 34.3467 88.6081 34.5755 88.0387 35.0266C87.4681 35.4816 87.0947 36.0757 86.9201 36.8115C86.8321 37.1547 86.7881 37.4355 86.7881 37.6565V39.7365C86.7881 40.6439 87.0734 41.4096 87.6441 42.0349C88.2147 42.6602 88.9561 42.9722 89.8681 42.9722C90.9387 42.9722 91.7721 42.5692 92.3681 41.7658C92.9654 40.9611 93.2641 39.9003 93.2641 38.5821Z" fill="black"/>
<path d="M110.876 38.4807C110.876 40.6023 110.288 42.2793 109.111 43.5104C108.059 44.6063 106.751 45.1536 105.189 45.1536C103.504 45.1536 102.293 44.5634 101.557 43.383H101.504V49.9545H98.6614V36.5034C98.6614 35.1696 98.6254 33.8007 98.556 32.3967H101.056L101.215 34.374H101.268C102.215 32.8842 103.653 32.1406 105.585 32.1406C107.093 32.1406 108.353 32.7217 109.364 33.8852C110.371 35.05 110.876 36.5814 110.876 38.4807ZM107.98 38.5821C107.98 37.3679 107.699 36.3669 107.136 35.5791C106.521 34.7575 105.699 34.3467 104.663 34.3467C103.96 34.3467 103.324 34.5755 102.753 35.0266C102.183 35.4816 101.811 36.0757 101.636 36.8115C101.549 37.1547 101.504 37.4355 101.504 37.6565V39.7365C101.504 40.6439 101.789 41.4096 102.357 42.0349C102.928 42.6589 103.669 42.9722 104.584 42.9722C105.655 42.9722 106.488 42.5692 107.084 41.7658C107.681 40.9611 107.98 39.9003 107.98 38.5821Z" fill="black"/>
<path d="M127.329 40.0207C127.329 41.4923 126.805 42.6896 125.753 43.6139C124.597 44.624 122.988 45.1284 120.92 45.1284C119.011 45.1284 117.48 44.7696 116.321 44.0507L116.98 41.7406C118.228 42.4764 119.597 42.8456 121.089 42.8456C122.16 42.8456 122.993 42.609 123.592 42.1384C124.188 41.6678 124.485 41.036 124.485 40.2482C124.485 39.5462 124.24 38.9547 123.748 38.475C123.259 37.9953 122.441 37.5494 121.3 37.1373C118.193 36.0076 116.641 34.3527 116.641 32.1765C116.641 30.7543 117.185 29.5882 118.275 28.6808C119.36 27.7721 120.808 27.3184 122.619 27.3184C124.233 27.3184 125.575 27.5927 126.645 28.14L125.935 30.3994C124.935 29.869 123.804 29.6038 122.539 29.6038C121.539 29.6038 120.757 29.8443 120.197 30.3227C119.724 30.7504 119.487 31.2717 119.487 31.8892C119.487 32.573 119.757 33.1385 120.301 33.5831C120.775 33.9939 121.635 34.4385 122.883 34.9182C124.409 35.5175 125.531 36.2182 126.252 37.0216C126.971 37.8224 127.329 38.8247 127.329 40.0207Z" fill="black"/>
<path d="M136.728 34.4774H133.595V40.5341C133.595 42.0746 134.147 42.8442 135.253 42.8442C135.761 42.8442 136.183 42.8013 136.516 42.7155L136.595 44.8202C136.035 45.0243 135.297 45.127 134.384 45.127C133.261 45.127 132.384 44.7929 131.751 44.126C131.12 43.4578 130.803 42.3372 130.803 40.7629V34.4748H128.936V32.3948H130.803V30.1107L133.595 29.2891V32.3948H136.728V34.4774Z" fill="black"/>
<path d="M150.865 38.5321C150.865 40.4496 150.303 42.0239 149.18 43.255C148.003 44.5225 146.44 45.1543 144.492 45.1543C142.615 45.1543 141.12 44.5472 140.005 43.333C138.891 42.1188 138.333 40.5861 138.333 38.7388C138.333 36.8057 138.907 35.2223 140.057 33.9912C141.205 32.7588 142.755 32.1426 144.703 32.1426C146.58 32.1426 148.091 32.7497 149.231 33.9652C150.321 35.1443 150.865 36.6666 150.865 38.5321ZM147.916 38.6218C147.916 37.4713 147.664 36.4846 147.153 35.6617C146.557 34.6659 145.705 34.1693 144.601 34.1693C143.459 34.1693 142.591 34.6672 141.995 35.6617C141.484 36.4859 141.232 37.4882 141.232 38.6738C141.232 39.8243 141.484 40.811 141.995 41.6326C142.609 42.6284 143.468 43.125 144.576 43.125C145.661 43.125 146.513 42.618 147.128 41.6066C147.652 40.7681 147.916 39.771 147.916 38.6218Z" fill="black"/>
<path d="M160.105 34.8342C159.824 34.7835 159.524 34.7575 159.209 34.7575C158.209 34.7575 157.436 35.1254 156.892 35.8625C156.419 36.5125 156.181 37.3341 156.181 38.326V44.8715H153.34L153.367 36.3253C153.367 34.8875 153.331 33.5784 153.26 32.398H155.736L155.84 34.7848H155.919C156.219 33.9645 156.692 33.3041 157.34 32.8088C157.973 32.3629 158.657 32.1406 159.395 32.1406C159.657 32.1406 159.895 32.1588 160.105 32.1913V34.8342Z" fill="black"/>
<path d="M172.819 38.0439C172.819 38.5405 172.785 38.9591 172.715 39.301H164.187C164.22 40.5334 164.632 41.4759 165.424 42.1259C166.143 42.707 167.072 42.9982 168.213 42.9982C169.476 42.9982 170.628 42.8019 171.664 42.408L172.109 44.332C170.899 44.8468 169.469 45.1029 167.82 45.1029C165.836 45.1029 164.279 44.5335 163.145 43.396C162.015 42.2585 161.448 40.731 161.448 38.8148C161.448 36.9337 161.975 35.3672 163.029 34.1179C164.133 32.7841 165.625 32.1172 167.503 32.1172C169.347 32.1172 170.743 32.7841 171.691 34.1179C172.441 35.1774 172.819 36.4878 172.819 38.0439ZM170.108 37.325C170.127 36.5034 169.941 35.7936 169.556 35.1943C169.064 34.4234 168.308 34.0386 167.291 34.0386C166.361 34.0386 165.605 34.4143 165.028 35.1683C164.555 35.7676 164.273 36.4865 164.187 37.3237H170.108V37.325Z" fill="black"/>
<path d="M75.3441 16.9303C75.3441 18.4604 74.8734 19.6122 73.9334 20.3857C73.0627 21.0994 71.8254 21.4569 70.2227 21.4569C69.428 21.4569 68.748 21.4231 68.1787 21.3555V12.9952C68.9214 12.8782 69.7214 12.8184 70.5854 12.8184C72.112 12.8184 73.2627 13.1421 74.0387 13.7895C74.9081 14.5214 75.3441 15.5679 75.3441 16.9303ZM73.8707 16.968C73.8707 15.9761 73.6014 15.2156 73.0627 14.6852C72.5241 14.1561 71.7374 13.8909 70.7014 13.8909C70.2614 13.8909 69.8867 13.9195 69.576 13.9793V20.335C69.748 20.361 70.0627 20.3727 70.52 20.3727C71.5894 20.3727 72.4147 20.0828 72.9961 19.503C73.5774 18.9232 73.8707 18.0782 73.8707 16.968Z" fill="black"/>
<path d="M83.1561 18.2671C83.1561 19.2096 82.8801 19.9818 82.3281 20.5876C81.7494 21.2103 80.9827 21.521 80.0254 21.521C79.1027 21.521 78.3681 21.2233 77.8201 20.6253C77.2734 20.0286 77.0001 19.2759 77.0001 18.3685C77.0001 17.4195 77.2814 16.6408 77.8467 16.0363C78.4121 15.4318 79.1721 15.1289 80.1294 15.1289C81.0521 15.1289 81.7934 15.4266 82.3547 16.0233C82.8881 16.6031 83.1561 17.3519 83.1561 18.2671ZM81.7067 18.3113C81.7067 17.7458 81.5814 17.2609 81.3321 16.8566C81.0387 16.3678 80.6214 16.1234 80.0787 16.1234C79.5174 16.1234 79.0907 16.3678 78.7974 16.8566C78.5467 17.2609 78.4227 17.7536 78.4227 18.336C78.4227 18.9015 78.5481 19.3864 78.7974 19.7907C79.1001 20.2795 79.5214 20.5239 80.0654 20.5239C80.5987 20.5239 81.0174 20.2756 81.3187 19.7777C81.5774 19.3656 81.7067 18.8768 81.7067 18.3113Z" fill="black"/>
<path d="M93.6307 15.2539L91.664 21.3821H90.384L89.5694 18.721C89.3627 18.0567 89.1947 17.3963 89.064 16.7411H89.0387C88.9174 17.4145 88.7494 18.0736 88.5334 18.721L87.668 21.3821H86.3734L84.524 15.2539H85.96L86.6707 18.1672C86.8427 18.8562 86.984 19.5127 87.0974 20.1341H87.1227C87.2267 19.6219 87.3987 18.9693 87.6414 18.1802L88.5334 15.2552H89.672L90.5267 18.1178C90.7334 18.8159 90.9014 19.488 91.0307 20.1354H91.0694C91.164 19.5049 91.3067 18.8328 91.496 18.1178L92.2587 15.2552H93.6307V15.2539Z" fill="black"/>
<path d="M100.875 21.3819H99.4773V17.8719C99.4773 16.7903 99.056 16.2495 98.2107 16.2495C97.796 16.2495 97.4614 16.3977 97.2014 16.6954C96.944 16.9931 96.8134 17.3441 96.8134 17.7458V21.3806H95.416V17.0048C95.416 16.4666 95.3987 15.8829 95.3654 15.2511H96.5934L96.6587 16.2092H96.6974C96.86 15.9115 97.1027 15.6658 97.4214 15.4695C97.8 15.2407 98.224 15.125 98.688 15.125C99.2747 15.125 99.7627 15.3096 100.151 15.6801C100.633 16.1338 100.875 16.8111 100.875 17.7107V21.3819Z" fill="black"/>
<path d="M104.728 21.3815H103.332V12.4414H104.728V21.3815Z" fill="black"/>
<path d="M112.955 18.2671C112.955 19.2096 112.679 19.9818 112.127 20.5876C111.548 21.2103 110.78 21.521 109.824 21.521C108.9 21.521 108.165 21.2233 107.619 20.6253C107.072 20.0286 106.799 19.2759 106.799 18.3685C106.799 17.4195 107.08 16.6408 107.645 16.0363C108.211 15.4318 108.971 15.1289 109.927 15.1289C110.851 15.1289 111.591 15.4266 112.153 16.0233C112.687 16.6031 112.955 17.3519 112.955 18.2671ZM111.504 18.3113C111.504 17.7458 111.379 17.2609 111.129 16.8566C110.837 16.3678 110.419 16.1234 109.877 16.1234C109.315 16.1234 108.888 16.3678 108.596 16.8566C108.345 17.2609 108.221 17.7536 108.221 18.336C108.221 18.9015 108.347 19.3864 108.596 19.7907C108.899 20.2795 109.32 20.5239 109.864 20.5239C110.397 20.5239 110.815 20.2756 111.116 19.7777C111.376 19.3656 111.504 18.8768 111.504 18.3113Z" fill="black"/>
<path d="M119.717 21.3819H118.463L118.359 20.676H118.32C117.891 21.2389 117.279 21.521 116.484 21.521C115.891 21.521 115.411 21.3351 115.049 20.9659C114.721 20.6305 114.557 20.2132 114.557 19.7179C114.557 18.9691 114.877 18.3984 115.521 18.0032C116.164 17.608 117.068 17.4143 118.232 17.4234V17.309C118.232 16.5017 117.797 16.0987 116.927 16.0987C116.307 16.0987 115.76 16.2508 115.288 16.5524L115.004 15.658C115.588 15.3057 116.309 15.1289 117.16 15.1289C118.803 15.1289 119.627 15.9739 119.627 17.6639V19.9207C119.627 20.533 119.657 21.0205 119.717 21.3819ZM118.267 19.2759V18.3308C116.725 18.3048 115.955 18.7169 115.955 19.5658C115.955 19.8856 116.043 20.1248 116.223 20.2847C116.403 20.4446 116.632 20.5239 116.905 20.5239C117.212 20.5239 117.499 20.429 117.76 20.2405C118.023 20.0507 118.184 19.8102 118.244 19.5151C118.259 19.4488 118.267 19.3682 118.267 19.2759Z" fill="black"/>
<path d="M127.657 21.3815H126.417L126.352 20.3974H126.313C125.917 21.1462 125.243 21.5206 124.295 21.5206C123.537 21.5206 122.907 21.2307 122.407 20.6509C121.907 20.0711 121.657 19.3184 121.657 18.3941C121.657 17.4022 121.928 16.5988 122.472 15.9852C122.999 15.4132 123.644 15.1272 124.412 15.1272C125.256 15.1272 125.847 15.4041 126.183 15.9592H126.209V12.4414H127.608V19.7305C127.608 20.3272 127.624 20.8771 127.657 21.3815ZM126.209 18.7971V17.7753C126.209 17.5985 126.196 17.4555 126.171 17.3463C126.092 17.0187 125.923 16.7431 125.665 16.5208C125.405 16.2985 125.092 16.1867 124.731 16.1867C124.209 16.1867 123.801 16.3882 123.501 16.7925C123.204 17.1968 123.053 17.7129 123.053 18.3434C123.053 18.9492 123.196 19.4406 123.483 19.8189C123.785 20.2219 124.193 20.4234 124.704 20.4234C125.163 20.4234 125.529 20.2557 125.808 19.919C126.077 19.6083 126.209 19.2339 126.209 18.7971Z" fill="black"/>
<path d="M139.608 18.2671C139.608 19.2096 139.332 19.9818 138.78 20.5876C138.201 21.2103 137.436 21.521 136.477 21.521C135.556 21.521 134.821 21.2233 134.272 20.6253C133.725 20.0286 133.452 19.2759 133.452 18.3685C133.452 17.4195 133.733 16.6408 134.299 16.0363C134.864 15.4318 135.624 15.1289 136.583 15.1289C137.504 15.1289 138.247 15.4266 138.807 16.0233C139.34 16.6031 139.608 17.3519 139.608 18.2671ZM138.16 18.3113C138.16 17.7458 138.035 17.2609 137.785 16.8566C137.491 16.3678 137.075 16.1234 136.531 16.1234C135.971 16.1234 135.544 16.3678 135.249 16.8566C134.999 17.2609 134.875 17.7536 134.875 18.336C134.875 18.9015 135 19.3864 135.249 19.7907C135.552 20.2795 135.973 20.5239 136.517 20.5239C137.051 20.5239 137.471 20.2756 137.772 19.7777C138.029 19.3656 138.16 18.8768 138.16 18.3113Z" fill="black"/>
<path d="M147.121 21.3819H145.725V17.8719C145.725 16.7903 145.304 16.2495 144.457 16.2495C144.043 16.2495 143.708 16.3977 143.449 16.6954C143.191 16.9931 143.061 17.3441 143.061 17.7458V21.3806H141.663V17.0048C141.663 16.4666 141.647 15.8829 141.613 15.2511H142.84L142.905 16.2092H142.944C143.108 15.9115 143.351 15.6658 143.668 15.4695C144.048 15.2407 144.471 15.125 144.936 15.125C145.521 15.125 146.009 15.3096 146.397 15.6801C146.881 16.1338 147.121 16.8111 147.121 17.7107V21.3819Z" fill="black"/>
<path d="M156.525 16.2733H154.987V19.2503C154.987 20.0069 155.26 20.3852 155.801 20.3852C156.052 20.3852 156.26 20.3644 156.424 20.3215L156.46 21.355C156.184 21.4564 155.821 21.5071 155.375 21.5071C154.823 21.5071 154.393 21.3433 154.083 21.0157C153.771 20.6881 153.616 20.1369 153.616 19.3634V16.2733H152.697V15.2528H153.616V14.1296L154.985 13.7266V15.2515H156.524V16.2733H156.525Z" fill="black"/>
<path d="M163.923 21.3815H162.524V17.8975C162.524 16.799 162.103 16.2491 161.259 16.2491C160.611 16.2491 160.168 16.5676 159.925 17.2046C159.884 17.3385 159.86 17.5023 159.86 17.6947V21.3802H158.464V12.4414H159.86V16.1347H159.887C160.327 15.4626 160.957 15.1272 161.775 15.1272C162.353 15.1272 162.832 15.3118 163.212 15.6823C163.685 16.1438 163.923 16.8302 163.923 17.7376V21.3815Z" fill="black"/>
<path d="M171.553 18.0279C171.553 18.2723 171.535 18.4777 171.501 18.6454H167.311C167.329 19.2512 167.529 19.7127 167.917 20.0325C168.272 20.3185 168.729 20.4615 169.289 20.4615C169.909 20.4615 170.475 20.3653 170.984 20.1716L171.203 21.118C170.607 21.3702 169.905 21.4963 169.093 21.4963C168.12 21.4963 167.353 21.2168 166.799 20.6578C166.241 20.0988 165.965 19.3487 165.965 18.4075C165.965 17.4832 166.223 16.7136 166.741 16.1C167.283 15.4448 168.015 15.1172 168.939 15.1172C169.843 15.1172 170.529 15.4448 170.993 16.1C171.368 16.62 171.553 17.2635 171.553 18.0279ZM170.22 17.6756C170.231 17.2713 170.139 16.9229 169.949 16.6291C169.707 16.2508 169.337 16.061 168.837 16.061C168.381 16.061 168.009 16.2456 167.725 16.6161C167.493 16.9112 167.356 17.2635 167.311 17.6756H170.22Z" fill="black"/>
</svg>
