<svg width="31" height="30" viewBox="0 0 31 30" fill="none" xmlns="http://www.w3.org/2000/svg">
<path fill-rule="evenodd" clip-rule="evenodd" d="M17.1004 28.7416C16.9385 27.9331 17.4641 27.1244 18.2725 26.9628L18.2728 26.9629C23.811 25.7098 27.7322 20.8182 27.6916 15.1995C27.6916 8.4891 22.2749 3.07236 15.5644 3.07236C14.7154 3.07236 14.0282 2.38519 14.0282 1.53618C14.0282 0.68717 14.7154 0 15.5644 0C22.6386 0 28.783 4.89144 30.3596 11.8038C32.2191 19.929 27.1257 28.0947 18.96 29.9137H18.8791C18.0706 30.0755 17.262 29.55 17.1004 28.7416ZM14.0684 13.623H8.81324C8.36856 13.623 8.00483 13.9867 8.00483 14.4314V15.8464C8.00483 16.291 8.36858 16.6548 8.81324 16.6548H14.0684V21.91C14.0684 22.3546 14.4322 22.7184 14.8768 22.7184H16.2918C16.7365 22.7184 17.1002 22.3546 17.1002 21.91V16.6548H22.3554C22.8001 16.6548 23.1638 16.291 23.1638 15.8464V14.4314C23.1638 13.9867 22.8001 13.623 22.3554 13.623H17.1002V8.3678C17.1002 7.92312 16.7365 7.55939 16.2918 7.55939H14.8768C14.4321 7.55939 14.0684 7.92314 14.0684 8.3678V13.623ZM4.81136 23.648C4.20512 24.2543 4.20512 25.1842 4.81136 25.7905C6.83256 27.8521 9.41969 29.3073 12.2089 29.9542C13.0173 30.1564 13.8664 29.6711 14.0686 28.8627C14.2708 28.0543 13.7855 27.2052 12.9771 27.003C12.9367 27.003 12.8961 27.003 12.8961 26.9627C10.6325 26.4371 8.57063 25.3052 6.95382 23.6478C6.34758 23.0821 5.37729 23.0821 4.81135 23.6481L4.81136 23.648ZM0.405151 15.1592C0.405168 17.0188 0.728597 18.8781 1.41575 20.6165C1.69885 21.3846 2.5879 21.7886 3.39659 21.4655C4.16472 21.1824 4.56874 20.2934 4.24564 19.4847C3.72004 18.0697 3.43723 16.6144 3.43723 15.1189C3.43723 14.2698 2.75006 13.5827 1.90105 13.5827C1.05204 13.5827 0.405151 14.3102 0.405151 15.1592ZM2.46681 7.55938C2.87091 6.83188 3.80087 6.5891 4.52836 6.99346L4.52833 6.99352C5.25582 7.43818 5.4986 8.36811 5.05393 9.05528C4.99331 9.17652 4.93269 9.28767 4.87207 9.39883C4.81144 9.51001 4.75081 9.62119 4.69018 9.74245V9.78277C4.32643 10.5105 3.39647 10.7934 2.66898 10.4296C1.94121 10.0659 1.65838 9.13591 2.02213 8.40842C2.14207 8.12836 2.30174 7.84861 2.46156 7.56858L2.46681 7.55938Z" fill="#4B4D53"/>
</svg>
