<svg width="31" height="21" viewBox="0 0 31 21" fill="none" xmlns="http://www.w3.org/2000/svg">
<path d="M29.8762 1.7544C29.664 1.63177 29.4234 1.56731 29.1784 1.56731C28.9337 1.56731 28.6931 1.63178 28.4809 1.7544L21.7842 5.62232V4.18544C21.7842 3.0753 21.3434 2.01063 20.5582 1.22574C19.7733 0.440842 18.7087 0 17.5988 0H4.7592C3.64931 0 2.58464 0.440848 1.79975 1.22574C1.01485 2.01063 0.573761 3.07524 0.573761 4.18544V16.1906C0.573761 17.3007 1.01485 18.3654 1.79975 19.1503C2.58464 19.9352 3.64925 20.376 4.7592 20.376H17.5988C18.7087 20.376 19.7733 19.9352 20.5582 19.1503C21.3433 18.3654 21.7842 17.3008 21.7842 16.1906V14.7537L28.4809 18.6218C28.9125 18.8709 29.4439 18.8709 29.8755 18.622C30.3071 18.3731 30.5733 17.9131 30.5738 17.4148V2.96443C30.574 2.71919 30.5098 2.47833 30.3874 2.26568C30.2648 2.05328 30.0886 1.87702 29.8762 1.7544ZM18.994 16.1904C18.994 16.5605 18.8471 16.9155 18.5855 17.177C18.3238 17.4385 17.969 17.5857 17.599 17.5857H4.75941C4.38961 17.5857 4.03462 17.4385 3.7731 17.177C3.51131 16.9155 3.36436 16.5605 3.36436 16.1904V4.18532C3.36436 3.81527 3.51131 3.46028 3.7731 3.19875C4.03464 2.93721 4.3896 2.79002 4.75941 2.79002H17.599C17.969 2.79002 18.3238 2.93721 18.5855 3.19875C18.8471 3.46029 18.994 3.81526 18.994 4.18532V16.1904ZM27.7835 14.9976L21.7843 11.5341V8.84517L27.7835 5.38166V14.9976Z" fill="#4B4D53"/>
</svg>
