<svg width="121" height="101" viewBox="0 0 121 101" fill="none" xmlns="http://www.w3.org/2000/svg">
<path d="M18.9252 43.2254C12.7008 45.001 6.56133 47.1806 0.544678 49.7641C0.544678 37.2691 0.544678 24.774 0.544678 12.279C6.56133 9.69541 12.7008 7.51582 18.9252 5.74021V13.7915C15.3738 14.8062 11.8507 15.9429 8.36538 17.2206C8.36538 19.4472 8.36538 21.6832 8.36538 23.9097C11.8507 22.632 15.3738 21.4859 18.9252 20.4806V28.5038C15.3738 29.5184 11.8507 30.6552 8.36538 31.9329C8.36538 34.1594 8.36538 36.3954 8.36538 38.6219C11.8507 37.3442 15.3738 36.1981 18.9252 35.1928V43.216V43.2254Z" fill="#0C4564"/>
<path d="M45.2399 32.8535C43.417 34.8264 41.5846 36.8275 39.7711 38.8568C34.3117 39.6084 28.8712 40.6512 23.4968 42.0041V4.51889C28.8712 3.16604 34.3022 2.12322 39.7711 1.37164C41.594 2.91238 43.417 4.48131 45.2399 6.07842V32.8441V32.8535ZM37.0225 31.2376V9.82694C35.209 10.1088 33.4049 10.4188 31.6103 10.7664V32.1771C33.4144 31.8295 35.2184 31.5195 37.0225 31.2376Z" fill="#0C4564"/>
<path d="M71.271 0.375791C68.5224 6.78303 65.7644 13.256 63.0064 19.8136V37.4852C60.2578 37.4382 57.5092 37.457 54.7701 37.5603V19.8887C52.0215 13.3876 49.2823 6.95214 46.5432 0.601266C49.2823 0.347607 52.0215 0.178501 54.7701 0.0751582C56.1491 3.51365 57.5281 6.96153 58.8977 10.4376C60.2672 6.94274 61.6368 3.45728 63.0064 0C65.7644 0.0469739 68.513 0.178501 71.271 0.375791Z" fill="#0C4564"/>
<path d="M94.3743 35.9914C92.5797 37.363 90.7756 38.7629 88.9621 40.2003C85.3446 39.505 81.7081 38.9414 78.0623 38.5092C76.2393 36.5081 74.4069 34.5352 72.584 32.5999V5.83416C74.4164 4.19947 76.2393 2.59296 78.0623 1.02403C81.7081 1.45619 85.3446 2.01988 88.9621 2.71509C90.7662 4.84771 92.5702 7.0179 94.3743 9.22567V35.9914ZM86.2324 31.6792V10.2685C84.4284 9.95847 82.6149 9.67662 80.8014 9.42296V30.8337C82.6149 31.0779 84.4189 31.3598 86.2324 31.6792Z" fill="#0C4564"/>
<path d="M120.037 44.4091C118.318 45.4519 116.59 46.5323 114.852 47.6503C111.376 46.3069 107.862 45.0949 104.311 44.0145C102.535 41.6846 100.759 39.3923 98.9741 37.1376C98.9741 26.4275 98.9741 15.7175 98.9741 5.00742C101.657 5.72142 104.33 6.50119 106.984 7.36551V36.8275C108.741 37.4006 110.488 38.0019 112.226 38.6407V9.1693C114.852 10.1276 117.459 11.1704 120.037 12.279V44.4091Z" fill="#0C4564"/>
<path d="M51.058 75.534L51.6342 65.7071L47.9599 65.5192L47.3838 75.2992C47.1571 78.8786 48.385 82.2795 50.8502 84.8912C53.221 87.409 56.4135 88.837 59.8705 88.9404V85.2952C57.443 85.1919 55.2045 84.1772 53.5327 82.4016C51.7758 80.532 50.888 78.0894 51.058 75.5246V75.534Z" fill="#0C4564"/>
<path d="M88.5653 74.557C88.452 74.059 88.2725 73.5893 88.027 73.1478C87.2902 71.8137 86.7896 70.4045 86.5913 68.8919C86.4118 67.5203 86.4779 66.158 86.7613 64.8052C87.3091 62.1277 86.119 59.5253 83.7293 58.2007C82.6809 57.6182 81.1697 57.3269 80.3479 56.5096C79.1767 55.3353 78.7895 53.4751 78.1661 51.9062C77.316 49.7641 75.7481 48.4677 73.4718 48.0167C72.8673 47.8946 72.2628 47.9322 71.6583 47.9603C68.7491 48.0919 66.1422 47.2745 63.7998 45.5647C62.9119 44.9164 61.9107 44.5594 60.8245 44.4373C60.7867 44.4373 60.7489 44.4185 60.7112 44.4091H59.6155C59.3322 44.4561 59.0582 44.5031 58.7843 44.5594C57.9626 44.7473 57.2353 45.1231 56.5647 45.6304C55.0912 46.7578 53.3911 47.4061 51.6059 47.8194C50.548 48.0637 49.4713 48.1107 48.3851 48.0355C45.6931 47.857 43.2752 49.4353 42.3117 51.9719C41.6978 53.5972 40.8005 55.044 39.5726 56.2841C38.7603 57.1015 37.8441 57.7685 36.8429 58.3322C35.0955 59.3186 34.0471 60.7936 33.7071 62.7571C33.5748 63.4993 33.6315 64.2415 33.7826 64.9743C34.4155 67.943 33.9904 70.7615 32.5453 73.4296C32.1675 74.1342 31.9502 74.8858 31.8936 75.6749C31.8936 75.7219 31.8747 75.7595 31.8652 75.8065V76.5581C31.8936 76.7741 31.9314 76.9902 31.9597 77.2063C32.1769 78.4746 32.7436 79.5644 33.6598 80.4851C35.4356 82.2701 36.5784 84.4027 37.0696 86.8641C37.1735 87.3714 37.1829 87.8882 37.2491 88.4049C37.523 90.4529 38.5808 91.9843 40.3849 93.0083C41.0177 93.3653 41.7072 93.5344 42.4062 93.7035C45.1548 94.3893 47.4027 95.8643 49.1218 98.1003C50.2174 99.5189 51.6531 100.317 53.4288 100.515C53.4572 100.515 53.4761 100.534 53.5044 100.543H54.5717C54.8551 100.487 55.1479 100.458 55.4218 100.383C56.0074 100.214 56.5836 99.998 57.1692 99.8383C59.5022 99.1807 61.8163 99.2652 64.1304 99.9417C64.8482 100.148 65.5755 100.327 66.2933 100.515C66.3122 100.515 66.3311 100.534 66.35 100.543H66.7278C67.0395 100.496 67.3607 100.458 67.6723 100.402C69.2592 100.139 70.5815 99.4062 71.5732 98.1285C72.4517 96.9917 73.4529 95.9865 74.6524 95.1879C75.9181 94.3518 77.2877 93.7881 78.7706 93.4687C81.1697 92.9519 83.1437 90.8381 83.4649 88.4237C83.5593 87.7378 83.6066 87.0426 83.7293 86.3662C84.1449 84.1584 85.1745 82.2419 86.7046 80.6072C87.1863 80.0905 87.668 79.5738 88.0081 78.9443C88.3953 78.2209 88.6315 77.46 88.7165 76.6426C88.7165 76.6144 88.7354 76.5862 88.7448 76.5487V75.4589C88.6881 75.1582 88.6409 74.8576 88.5748 74.557H88.5653ZM71.1388 86.2253C68.2957 89.241 64.4421 90.8945 60.2861 90.8945C56.1302 90.8945 52.2765 89.2316 49.4335 86.2253C46.5999 83.219 45.1831 79.2919 45.4476 75.1864L46.1182 63.9033L46.3732 59.7132C46.3732 59.5723 46.3827 59.0744 46.7605 58.6704C47.0533 58.3604 47.4689 58.2007 48.0072 58.2007C48.1017 58.2007 48.2056 58.2007 48.3095 58.2194C49.8396 58.3698 52.3993 58.4543 52.4182 58.4543C52.4654 58.4543 52.9849 58.4731 53.41 58.9053C53.7783 59.2905 53.9483 59.8541 53.9106 60.5869L53.6839 63.9409V64.2885L52.9944 75.6562C52.8621 77.676 53.5611 79.602 54.9495 81.0769C56.3474 82.5519 58.2365 83.3693 60.2767 83.3693C62.3169 83.3693 64.2154 82.5519 65.6038 81.0769C66.9923 79.602 67.6912 77.676 67.559 75.6562L66.9451 66.1205L66.8978 65.7165L66.52 59.5911C66.4822 59.0556 66.8978 58.5952 67.4362 58.5577L73.0656 58.2007H73.1128C73.6229 58.2007 74.0574 58.5952 74.0857 59.1119L74.4068 64.3542L74.4446 64.73L75.1152 75.177C75.3797 79.2919 73.9629 83.2096 71.1293 86.2253H71.1388Z" fill="#0C4564"/>
<path d="M45.8538 63.1235L54.2884 63.6496" stroke="#0C4564" stroke-width="2" stroke-miterlimit="10"/>
<path d="M74.8507 63.1235L66.416 63.6496" stroke="#0C4564" stroke-width="2" stroke-miterlimit="10"/>
</svg>
